<svg xmlns="http://www.w3.org/2000/svg" width="16" height="16" viewBox="0 0 16 16" shape-rendering="crispEdges"><rect x="3" y="4" width="1" height="1" fill="#a9bbcc"/><rect x="4" y="4" width="1" height="1" fill="#a9bbcc"/><rect x="5" y="4" width="1" height="1" fill="#a9bbcc"/><rect x="6" y="4" width="1" height="1" fill="#a9bbcc"/><rect x="7" y="4" width="1" height="1" fill="#a9bbcc"/><rect x="8" y="4" width="1" height="1" fill="#a9bbcc"/><rect x="9" y="4" width="1" height="1" fill="#a9bbcc"/><rect x="10" y="4" width="1" height="1" fill="#a9bbcc"/><rect x="11" y="4" width="1" height="1" fill="#a9bbcc"/><rect x="12" y="4" width="1" height="1" fill="#a9bbcc"/><rect x="3" y="5" width="1" height="1" fill="#a9bbcc"/><rect x="12" y="5" width="1" height="1" fill="#a9bbcc"/><rect x="3" y="6" width="1" height="1" fill="#a9bbcc"/><rect x="12" y="6" width="1" height="1" fill="#a9bbcc"/><rect x="3" y="7" width="1" height="1" fill="#a9bbcc"/><rect x="12" y="7" width="1" height="1" fill="#a9bbcc"/><rect x="3" y="8" width="1" height="1" fill="#a9bbcc"/><rect x="12" y="8" width="1" height="1" fill="#a9bbcc"/><rect x="3" y="9" width="1" height="1" fill="#a9bbcc"/><rect x="12" y="9" width="1" height="1" fill="#a9bbcc"/><rect x="3" y="10" width="1" height="1" fill="#a9bbcc"/><rect x="12" y="10" width="1" height="1" fill="#a9bbcc"/><rect x="3" y="11" width="1" height="1" fill="#a9bbcc"/><rect x="12" y="11" width="1" height="1" fill="#a9bbcc"/><rect x="3" y="12" width="1" height="1" fill="#a9bbcc"/><rect x="4" y="12" width="1" height="1" fill="#a9bbcc"/><rect x="5" y="12" width="1" height="1" fill="#a9bbcc"/><rect x="6" y="12" width="1" height="1" fill="#a9bbcc"/><rect x="7" y="12" width="1" height="1" fill="#a9bbcc"/><rect x="8" y="12" width="1" height="1" fill="#a9bbcc"/><rect x="9" y="12" width="1" height="1" fill="#a9bbcc"/><rect x="10" y="12" width="1" height="1" fill="#a9bbcc"/><rect x="11" y="12" width="1" height="1" fill="#a9bbcc"/><rect x="12" y="12" width="1" height="1" fill="#a9bbcc"/></svg>
